<svg display="none" xmlns="http://www.w3.org/2000/svg">
  <symbol id="svg-logo" viewBox="0 0 35 35">
    <g>
      <path d="M17.5 0L19.9652 9.10444L26.9612 2.77806L24.1128 11.77L33.4186 10.2302L26.1609 16.2547L34.8219 19.9905L25.4593 21.1349L30.7256 28.9601L22.2306 24.861L22.4303 34.2911L17.5 26.25L12.5697 34.2911L12.7694 24.861L4.27438 28.9601L9.54072 21.1349L0.178125 19.9905L8.83906 16.2547L1.58144 10.2302L10.8872 11.77L8.03879 2.77806L15.0348 9.10444L17.5 0Z"/>
    </g>
  </symbol>

  <symbol id="svg-cart" viewBox="0 0 24 24">
    <g>
      <path d="M9.24992 21.1667C9.75618 21.1667 10.1666 20.7563 10.1666 20.25C10.1666 19.7438 9.75618 19.3334 9.24992 19.3334C8.74366 19.3334 8.33325 19.7438 8.33325 20.25C8.33325 20.7563 8.74366 21.1667 9.24992 21.1667Z" stroke-width="2" stroke-linecap="round" stroke-linejoin="round"/>
      <path d="M19.3334 21.1667C19.8397 21.1667 20.2501 20.7563 20.2501 20.25C20.2501 19.7438 19.8397 19.3334 19.3334 19.3334C18.8272 19.3334 18.4167 19.7438 18.4167 20.25C18.4167 20.7563 18.8272 21.1667 19.3334 21.1667Z" stroke-width="2" stroke-linecap="round" stroke-linejoin="round"/>
      <path d="M1.91675 1.91663H5.58341L8.04008 14.1908C8.12391 14.6128 8.3535 14.9919 8.68866 15.2617C9.02383 15.5315 9.44322 15.6749 9.87341 15.6666H18.7834C19.2136 15.6749 19.633 15.5315 19.9682 15.2617C20.3033 14.9919 20.5329 14.6128 20.6167 14.1908L22.0834 6.49996H6.50008" stroke-width="2" stroke-linecap="round" stroke-linejoin="round"/>
    </g>    
  </symbol>

  <symbol id="svg-vk" width="24" height="24" viewBox="0 0 1200 1200">
    <g>
    <path d="M0 0v1200h1200V0zm532.69 320.874c33.977-.352 67.21 3.415 83.423 3.882c60.1 1.73 70.714 32.127 69.945 57.129c-1.124 36.617-24.683 191.51 18.971 206.616c63.609-34.014 106.265-139.659 137.328-206.616c15.714-33.868 13.229-35.551 49.438-35.596l143.848-.22c34.641-.043 33.289-1.258 44.386 12.891c25.81 32.908-81.447 169.794-116.09 207.642c-63.929 69.847-26.63 96.895-16.332 106.494c47.709 44.483 93.809 90.611 122.461 133.154c22.778 33.822 13.37 65.312-15.602 66.504l-154.248 6.372c-51.186 2.104-130.776-89.652-143.48-109.644c-10.274-16.49-59.789-37.157-64.453 4.979l-6.52 58.813c-4.734 42.041-35.775 41.06-60.277 42.113c-169.669 7.301-227.45-57.297-312.892-152.637c-62.621-88.56-122.38-177.629-171.899-284.326c-14.822-31.938-22.673-55.367-24.683-80.2c24.916-19.474 112.373-11.086 171.094-12.378c16.061-.354 26.898 8.849 35.376 27.173c33.081 71.513 69.159 141.739 116.895 203.833c20.789 19.148 39.167 26.189 48.34-12.743c5.326-.49 4.898-64.964 5.2-113.6c.207-33.394-3.716-73.441-60.278-91.919c11.441-29.989 56.365-37.263 100.049-37.716"/>
</g>

  </symbol>

  <symbol id="svg-tg" viewBox="0 0 32 32">
    <g>
<path d="M16 .5C7.437.5.5 7.438.5 16S7.438 31.5 16 31.5c8.563 0 15.5-6.938 15.5-15.5S24.562.5 16 .5m7.613 10.619l-2.544 11.988c-.188.85-.694 1.056-1.4.656l-3.875-2.856l-1.869 1.8c-.206.206-.381.381-.781.381l.275-3.944l7.181-6.488c.313-.275-.069-.431-.482-.156l-8.875 5.587l-3.825-1.194c-.831-.262-.85-.831.175-1.231l14.944-5.763c.694-.25 1.3.169 1.075 1.219z"/>
</g>
  </symbol>
  
  <symbol id="svg-y" viewBox="0 0 1000 1000">
    <g>
    <path d="M958.234 572.394a463.194 463.194 0 0 0 5.7-72.422c0-256.241-207.709-463.95-463.962-463.95c-24.588 0-48.81 2.022-72.399 5.711C384.84 15.3 334.407 0 280.364 0C125.521 0 0 125.51 0 280.364c0 54.032 15.311 104.421 41.733 147.242c-3.655 23.645-5.667 47.722-5.667 72.377c0 256.253 207.709 463.906 463.895 463.906c24.611 0 48.833-1.9 72.422-5.622C615.16 984.656 665.548 1000 719.592 1000c154.876 0 280.386-125.543 280.386-280.397c.011-54.044-15.289-104.432-41.744-147.209M720.248 710.981c-19.633 28.255-48.455 50.333-86.133 66.21c-37.755 15.911-82.366 23.833-133.887 23.833c-61.755 0-112.888-10.799-153.243-32.621c-28.611-15.622-51.877-36.589-69.766-62.733c-17.922-26.155-27.011-51.766-27.011-76.744c0-14.733 5.623-27.555 16.556-37.999c11.055-10.522 25.288-15.8 42.088-15.8c13.767 0 25.589 4.144 35.211 12.355c9.555 8.211 17.566 20.145 24.122 35.9c7.855 18.255 16.389 33.511 25.466 45.677c9.022 12.022 21.722 22.067 38.166 29.922c16.267 7.878 37.911 11.811 65 11.811c37.066 0 67.032-8.011 89.954-23.833c23.044-15.955 34.122-35.377 34.122-58.855c0-18.711-5.978-33.588-18.211-45.177c-12.344-11.733-28.299-20.678-48.088-26.911c-19.867-6.3-46.544-12.989-79.977-20.033c-44.888-9.789-82.432-21.2-112.832-34.289c-30.444-13.155-54.688-31.121-72.655-53.821c-18.011-22.922-26.988-51.411-26.988-85.155c0-32.177 9.477-60.955 28.455-85.999c18.966-25.111 46.41-44.333 82.188-57.721c35.655-13.389 77.632-20.078 125.721-20.078c38.455 0 71.721 4.444 99.876 13.3c28.089 8.922 51.489 20.689 70.199 35.455c18.611 14.733 32.289 30.277 40.956 46.588c8.655 16.356 13.022 32.333 13.022 47.922c0 14.5-5.622 27.644-16.567 39.166c-10.955 11.545-24.955 17.422-41.31 17.367c-14.745 0-26.311-3.4-34.333-10.6c-7.811-6.967-16.011-18.055-24.889-33.511c-11.211-21.566-24.644-38.366-40.277-50.388c-15.211-11.789-40.311-17.933-75.233-17.856c-32.311 0-58.166 6.6-77.677 19.511c-19.633 13.122-29.022 28.345-29.066 46.178c.033 11.177 3.244 20.599 9.711 28.655c6.566 8.133 15.7 15.177 27.444 21.122c11.744 6.033 23.689 10.7 35.7 14.055c12.144 3.445 32.299 8.422 60.31 15.011c35.133 7.578 67.01 16.033 95.643 25.255c28.578 9.267 52.967 20.445 73.122 33.756c20.311 13.277 36.188 30.199 47.522 50.644c11.399 20.477 17.088 45.488 17.088 74.91c.045 35.444-9.833 67.31-29.499 95.521"/>
    </g>
  </symbol>

  
</svg>
