<svg display="none" xmlns="http://www.w3.org/2000/svg">
  <symbol id="svg-logo" viewBox="0 0 35 35">
    <g>
      <path d="M17.5 0L19.9652 9.10444L26.9612 2.77806L24.1128 11.77L33.4186 10.2302L26.1609 16.2547L34.8219 19.9905L25.4593 21.1349L30.7256 28.9601L22.2306 24.861L22.4303 34.2911L17.5 26.25L12.5697 34.2911L12.7694 24.861L4.27438 28.9601L9.54072 21.1349L0.178125 19.9905L8.83906 16.2547L1.58144 10.2302L10.8872 11.77L8.03879 2.77806L15.0348 9.10444L17.5 0Z"/>
    </g>
  </symbol>

  <symbol id="svg-cart" viewBox="0 0 24 24">
    <g>
      <path d="M9.24992 21.1667C9.75618 21.1667 10.1666 20.7563 10.1666 20.25C10.1666 19.7438 9.75618 19.3334 9.24992 19.3334C8.74366 19.3334 8.33325 19.7438 8.33325 20.25C8.33325 20.7563 8.74366 21.1667 9.24992 21.1667Z" stroke-width="2" stroke-linecap="round" stroke-linejoin="round"/>
      <path d="M19.3334 21.1667C19.8397 21.1667 20.2501 20.7563 20.2501 20.25C20.2501 19.7438 19.8397 19.3334 19.3334 19.3334C18.8272 19.3334 18.4167 19.7438 18.4167 20.25C18.4167 20.7563 18.8272 21.1667 19.3334 21.1667Z" stroke-width="2" stroke-linecap="round" stroke-linejoin="round"/>
      <path d="M1.91675 1.91663H5.58341L8.04008 14.1908C8.12391 14.6128 8.3535 14.9919 8.68866 15.2617C9.02383 15.5315 9.44322 15.6749 9.87341 15.6666H18.7834C19.2136 15.6749 19.633 15.5315 19.9682 15.2617C20.3033 14.9919 20.5329 14.6128 20.6167 14.1908L22.0834 6.49996H6.50008" stroke-width="2" stroke-linecap="round" stroke-linejoin="round"/>
    </g>  
  </symbol>

  <symbol id="svg-f" width="24" height="24" viewBox="0 0 24 24">
    <g clip-path="url(#clip0_10_333)">
<path d="M15.402 21V14.034H17.735L18.084 11.326H15.402V9.598C15.402 8.814 15.62 8.279 16.744 8.279H18.178V5.857C17.4838 5.78334 16.7861 5.74762 16.088 5.75C14.021 5.75 12.606 7.012 12.606 9.33V11.326H10.268V14.034H12.606V21H4C3.73478 21 3.48043 20.8946 3.29289 20.7071C3.10536 20.5196 3 20.2652 3 20V4C3 3.73478 3.10536 3.48043 3.29289 3.29289C3.48043 3.10536 3.73478 3 4 3H20C20.2652 3 20.5196 3.10536 20.7071 3.29289C20.8946 3.48043 21 3.73478 21 4V20C21 20.2652 20.8946 20.5196 20.7071 20.7071C20.5196 20.8946 20.2652 21 20 21H15.402Z"/>
</g>
<defs>
<clipPath id="clip0_10_333">
<rect width="24" height="24" fill="white"/>
</clipPath>
</defs>
  </symbol>

  <symbol id="svg-i" viewBox="0 0 24 24">
    <g>
      <path d="M12 2C14.717 2 15.056 2.01 16.122 2.06C17.187 2.11 17.912 2.277 18.55 2.525C19.21 2.779 19.766 3.123 20.322 3.678C20.8305 4.1779 21.224 4.78259 21.475 5.45C21.722 6.087 21.89 6.813 21.94 7.878C21.987 8.944 22 9.283 22 12C22 14.717 21.99 15.056 21.94 16.122C21.89 17.187 21.722 17.912 21.475 18.55C21.2247 19.2178 20.8311 19.8226 20.322 20.322C19.822 20.8303 19.2173 21.2238 18.55 21.475C17.913 21.722 17.187 21.89 16.122 21.94C15.056 21.987 14.717 22 12 22C9.283 22 8.944 21.99 7.878 21.94C6.813 21.89 6.088 21.722 5.45 21.475C4.78233 21.2245 4.17753 20.8309 3.678 20.322C3.16941 19.8222 2.77593 19.2175 2.525 18.55C2.277 17.913 2.11 17.187 2.06 16.122C2.013 15.056 2 14.717 2 12C2 9.283 2.01 8.944 2.06 7.878C2.11 6.812 2.277 6.088 2.525 5.45C2.77524 4.78218 3.1688 4.17732 3.678 3.678C4.17767 3.16923 4.78243 2.77573 5.45 2.525C6.088 2.277 6.812 2.11 7.878 2.06C8.944 2.013 9.283 2 12 2ZM12 7C10.6739 7 9.40215 7.52678 8.46447 8.46447C7.52678 9.40215 7 10.6739 7 12C7 13.3261 7.52678 14.5979 8.46447 15.5355C9.40215 16.4732 10.6739 17 12 17C13.3261 17 14.5979 16.4732 15.5355 15.5355C16.4732 14.5979 17 13.3261 17 12C17 10.6739 16.4732 9.40215 15.5355 8.46447C14.5979 7.52678 13.3261 7 12 7ZM18.5 6.75C18.5 6.41848 18.3683 6.10054 18.1339 5.86612C17.8995 5.6317 17.5815 5.5 17.25 5.5C16.9185 5.5 16.6005 5.6317 16.3661 5.86612C16.1317 6.10054 16 6.41848 16 6.75C16 7.08152 16.1317 7.39946 16.3661 7.63388C16.6005 7.8683 16.9185 8 17.25 8C17.5815 8 17.8995 7.8683 18.1339 7.63388C18.3683 7.39946 18.5 7.08152 18.5 6.75ZM12 9C12.7956 9 13.5587 9.31607 14.1213 9.87868C14.6839 10.4413 15 11.2044 15 12C15 12.7956 14.6839 13.5587 14.1213 14.1213C13.5587 14.6839 12.7956 15 12 15C11.2044 15 10.4413 14.6839 9.87868 14.1213C9.31607 13.5587 9 12.7956 9 12C9 11.2044 9.31607 10.4413 9.87868 9.87868C10.4413 9.31607 11.2044 9 12 9Z"/>
    </g>
  </symbol>
  
  <symbol id="svg-y" viewBox="0 0 24 24">
    <g>
      <path d="M21.543 6.498C22 8.28 22 12 22 12C22 12 22 15.72 21.543 17.502C21.289 18.487 20.546 19.262 19.605 19.524C17.896 20 12 20 12 20C12 20 6.107 20 4.395 19.524C3.45 19.258 2.708 18.484 2.457 17.502C2 15.72 2 12 2 12C2 12 2 8.28 2.457 6.498C2.711 5.513 3.454 4.738 4.395 4.476C6.107 4 12 4 12 4C12 4 17.896 4 19.605 4.476C20.55 4.742 21.292 5.516 21.543 6.498ZM10 15.5L16 12L10 8.5V15.5Z"/>
    </g>
  </symbol>

  
</svg>
